<svg xmlns="http://www.w3.org/2000/svg" width="200" height="200" viewBox="72 72 880 880">
  <!-- Made with Samantha: her logo designer laid 89 ember petals on a golden-angle spiral (style flower), cleared a dark ring, and lit one core, the cell under the tape head. Rebuild with tools_logo.icon_svg(); spec in pixelmator/examples/turing-flower.json. -->
  <rect x="72" y="72" width="880" height="880" rx="200" fill="#15110d"/>
  <ellipse cx="505" cy="663" rx="25.5" ry="25.5" fill="#e8a96a" opacity="0.92"/>
  <ellipse cx="412" cy="392" rx="26" ry="26" fill="#e8a96a" opacity="0.92"/>
  <ellipse cx="670" cy="533" rx="26" ry="26" fill="#e8a96a" opacity="0.92"/>
  <ellipse cx="378" cy="605" rx="26.5" ry="26.5" fill="#e8a96a" opacity="0.92"/>
  <ellipse cx="549" cy="349" rx="26.5" ry="26.5" fill="#e8a96a" opacity="0.92"/>
  <ellipse cx="597" cy="661" rx="27" ry="27" fill="#e8a96a" opacity="0.93"/>
  <ellipse cx="345" cy="459" rx="27.5" ry="27.5" fill="#e8a96a" opacity="0.93"/>
  <ellipse cx="674" cy="437" rx="27.5" ry="27.5" fill="#e8a96a" opacity="0.93"/>
  <ellipse cx="442" cy="680" rx="28" ry="28" fill="#e8a96a" opacity="0.93"/>
  <ellipse cx="449" cy="337" rx="28" ry="28" fill="#e8a96a" opacity="0.93"/>
  <ellipse cx="679" cy="600" rx="28.5" ry="28.5" fill="#e8a96a" opacity="0.93"/>
  <ellipse cx="326" cy="561" rx="29" ry="29" fill="#e8a96a" opacity="0.94"/>
  <ellipse cx="618" cy="347" rx="29" ry="29" fill="#e8a96a" opacity="0.94"/>
  <ellipse cx="546" cy="708" rx="29.5" ry="29.5" fill="#e8a96a" opacity="0.94"/>
  <ellipse cx="352" cy="388" rx="29.5" ry="29.5" fill="#e8a96a" opacity="0.94"/>
  <ellipse cx="716" cy="495" rx="30" ry="30" fill="#e8a96a" opacity="0.94"/>
  <ellipse cx="371" cy="665" rx="30" ry="30" fill="#e8a96a" opacity="0.94"/>
  <ellipse cx="513" cy="301" rx="30.5" ry="30.5" fill="#e8a96a" opacity="0.94"/>
  <ellipse cx="656" cy="671" rx="30.5" ry="30.5" fill="#e8a96a" opacity="0.95"/>
  <ellipse cx="296" cy="492" rx="31" ry="31" fill="#e8a96a" opacity="0.95"/>
  <ellipse cx="687" cy="379" rx="31" ry="31" fill="#e8a96a" opacity="0.95"/>
  <ellipse cx="472" cy="731" rx="31.5" ry="31.5" fill="#e8a96a" opacity="0.95"/>
  <ellipse cx="392" cy="321" rx="31.5" ry="31.5" fill="#e8a96a" opacity="0.95"/>
  <ellipse cx="733" cy="572" rx="32" ry="32" fill="#e8a96a" opacity="0.95"/>
  <ellipse cx="306" cy="618" rx="32" ry="32" fill="#e8a96a" opacity="0.95"/>
  <ellipse cx="593" cy="292" rx="32" ry="32" fill="#e8a96a" opacity="0.95"/>
  <ellipse cx="601" cy="731" rx="32.5" ry="32.5" fill="#e8a96a" opacity="0.96"/>
  <ellipse cx="296" cy="409" rx="32.5" ry="32.5" fill="#e8a96a" opacity="0.96"/>
  <ellipse cx="743" cy="441" rx="33" ry="33" fill="#e8a96a" opacity="0.96"/>
  <ellipse cx="388" cy="723" rx="33" ry="33" fill="#e8a96a" opacity="0.96"/>
  <ellipse cx="460" cy="270" rx="33.5" ry="33.5" fill="#e8a96a" opacity="0.96"/>
  <ellipse cx="716" cy="657" rx="33.5" ry="33.5" fill="#e8a96a" opacity="0.96"/>
  <ellipse cx="261" cy="543" rx="34" ry="34" fill="#e8a96a" opacity="0.96"/>
  <ellipse cx="677" cy="318" rx="34" ry="34" fill="#e8a96a" opacity="0.96"/>
  <ellipse cx="521" cy="769" rx="34" ry="34" fill="#e8a96a" opacity="0.97"/>
  <ellipse cx="330" cy="327" rx="34.5" ry="34.5" fill="#e8a96a" opacity="0.97"/>
  <ellipse cx="774" cy="525" rx="34.5" ry="34.5" fill="#e8a96a" opacity="0.97"/>
  <ellipse cx="308" cy="681" rx="35" ry="35" fill="#e8a96a" opacity="0.97"/>
  <ellipse cx="549" cy="247" rx="35" ry="35" fill="#e8a96a" opacity="0.97"/>
  <ellipse cx="665" cy="734" rx="35" ry="35" fill="#e8a96a" opacity="0.97"/>
  <ellipse cx="247" cy="451" rx="35.5" ry="35.5" fill="#e8a96a" opacity="0.97"/>
  <ellipse cx="751" cy="377" rx="35.5" ry="35.5" fill="#e8a96a" opacity="0.97"/>
  <ellipse cx="427" cy="775" rx="36" ry="36" fill="#e8a96a" opacity="0.97"/>
  <ellipse cx="396" cy="258" rx="36" ry="36" fill="#e8a96a" opacity="0.97"/>
  <ellipse cx="771" cy="622" rx="36" ry="36" fill="#e8a96a" opacity="0.98"/>
  <ellipse cx="245" cy="607" rx="36.5" ry="36.5" fill="#e8a96a" opacity="0.98"/>
  <ellipse cx="646" cy="260" rx="36.5" ry="36.5" fill="#e8a96a" opacity="0.98"/>
  <ellipse cx="584" cy="791" rx="36.5" ry="36.5" fill="#e8a96a" opacity="0.98"/>
  <ellipse cx="269" cy="354" rx="37" ry="37" fill="#e8a96a" opacity="0.98"/>
  <ellipse cx="800" cy="464" rx="37" ry="37" fill="#e8a96a" opacity="0.98"/>
  <ellipse cx="331" cy="744" rx="37" ry="37" fill="#e8a96a" opacity="0.98"/>
  <ellipse cx="489" cy="216" rx="37.5" ry="37.5" fill="#e8a96a" opacity="0.98"/>
  <ellipse cx="730" cy="716" rx="37.5" ry="37.5" fill="#e8a96a" opacity="0.98"/>
  <ellipse cx="211" cy="509" rx="38" ry="38" fill="#e8a96a" opacity="0.98"/>
  <ellipse cx="737" cy="310" rx="38" ry="38" fill="#e8a96a" opacity="0.99"/>
  <ellipse cx="482" cy="816" rx="38" ry="38" fill="#e8a96a" opacity="0.99"/>
  <ellipse cx="327" cy="266" rx="38.5" ry="38.5" fill="#e8a96a" opacity="0.99"/>
  <ellipse cx="816" cy="569" rx="38.5" ry="38.5" fill="#e8a96a" opacity="0.99"/>
  <ellipse cx="248" cy="677" rx="38.5" ry="38.5" fill="#e8a96a" opacity="0.99"/>
  <ellipse cx="596" cy="210" rx="39" ry="39" fill="#e8a96a" opacity="0.99"/>
  <ellipse cx="655" cy="793" rx="39" ry="39" fill="#e8a96a" opacity="0.99"/>
  <ellipse cx="215" cy="400" rx="39" ry="39" fill="#e8a96a" opacity="0.99"/>
  <ellipse cx="808" cy="393" rx="39.5" ry="39.5" fill="#e8a96a" opacity="0.99"/>
  <ellipse cx="373" cy="802" rx="39.5" ry="39.5" fill="#e8a96a" opacity="0.99"/>
  <ellipse cx="418" cy="203" rx="39.5" ry="39.5" fill="#e8a96a" opacity="0.99"/>
  <ellipse cx="792" cy="678" rx="40" ry="40" fill="#e8a96a"/>
  <ellipse cx="192" cy="579" rx="40" ry="40" fill="#e8a96a"/>
  <ellipse cx="704" cy="245" rx="40" ry="40" fill="#e8a96a"/>
  <ellipse cx="551" cy="841" rx="40.5" ry="40.5" fill="#e8a96a"/>
  <ellipse cx="259" cy="295" rx="40.5" ry="40.5" fill="#e8a96a"/>
  <ellipse cx="847" cy="501" rx="40.5" ry="40.5" fill="#e8a96a"/>
  <ellipse cx="512" cy="512" rx="90" ry="90" fill="#f4c893"/>
</svg>
