<svg xmlns="http://www.w3.org/2000/svg" width="480" height="200" viewBox="0 0 480 200"><style>
  :root { --ink: #111111; }
  @media (prefers-color-scheme: dark) { :root { --ink: #ececec; } }
  text { font-family: -apple-system, Helvetica, Arial, sans-serif; fill: var(--ink); }
  line, polyline { stroke: var(--ink); fill: none; }
  .g { stroke-dasharray: 1 4; }
</style><text x="50" y="11" font-size="10">Lines of real code</text><line x1="50" y1="26" x2="470" y2="26" class="g"/><text x="46" y="29" font-size="9" text-anchor="end">22455</text><line x1="50" y1="97" x2="470" y2="97" class="g"/><text x="46" y="100" font-size="9" text-anchor="end">11227</text>
<line x1="50" y1="26" x2="50" y2="166"/><line x1="50" y1="166" x2="470" y2="166"/>
<polyline points="50,166 60,163 70,161 80,159 90,157 100,153 110,149 120,142 130,132 140,120 150,119 160,116 170,115 180,110 190,104 200,101 210,99 220,97 230,96 240,93 250,91 260,88 270,88 280,85 290,83 300,81 310,80 320,76 330,72 340,70 350,68 360,64 370,63 380,61 390,61 400,57 410,52 420,47 430,46 440,41 450,34 460,28 470,26" stroke-width="2.5" stroke-linejoin="round" stroke-linecap="round"/>
<text x="50" y="182" font-size="10">Sep 13</text><text x="470" y="182" font-size="10" text-anchor="end">Sep 25</text>
<text x="50" y="196" font-size="10" font-weight="600">22,455 lines &#183; 100% documented &#183; 396 commits since Sep 13 2026</text></svg>
