<svg xmlns="http://www.w3.org/2000/svg" width="480" height="200" viewBox="0 0 480 200"><style>
  :root { --ink: #111111; }
  @media (prefers-color-scheme: dark) { :root { --ink: #ececec; } }
  text { font-family: -apple-system, Helvetica, Arial, sans-serif; fill: var(--ink); }
  line, polyline { stroke: var(--ink); fill: none; }
  .g { stroke-dasharray: 1 4; }
</style><text x="50" y="11" font-size="10">Lines of real code</text><line x1="50" y1="26" x2="470" y2="26" class="g"/><text x="46" y="29" font-size="9" text-anchor="end">21850</text><line x1="50" y1="96" x2="470" y2="96" class="g"/><text x="46" y="99" font-size="9" text-anchor="end">10925</text>
<line x1="50" y1="26" x2="50" y2="166"/><line x1="50" y1="166" x2="470" y2="166"/>
<polyline points="50,166 60,163 70,161 80,159 90,157 101,152 111,149 121,141 131,131 142,119 152,117 162,114 172,114 183,109 193,102 203,99 213,98 224,96 234,95 244,91 254,89 265,86 275,86 285,83 295,80 306,79 316,78 326,73 336,70 347,67 357,65 367,61 377,60 388,59 398,59 408,54 418,49 429,44 439,43 449,38 459,30 470,26" stroke-width="2.5" stroke-linejoin="round" stroke-linecap="round"/>
<text x="50" y="182" font-size="10">Sep 13</text><text x="470" y="182" font-size="10" text-anchor="end">Sep 24</text>
<text x="50" y="196" font-size="10" font-weight="600">21,850 lines &#183; 100% documented &#183; 393 commits since Sep 13 2026</text></svg>
