<svg xmlns="http://www.w3.org/2000/svg" width="480" height="200" viewBox="0 0 480 200"><style>
  :root { --ink: #111111; }
  @media (prefers-color-scheme: dark) { :root { --ink: #ececec; } }
  text { font-family: -apple-system, Helvetica, Arial, sans-serif; fill: var(--ink); }
  line, polyline { stroke: var(--ink); fill: none; }
  .g { stroke-dasharray: 1 4; }
</style><text x="50" y="11" font-size="10">Lines of real code</text><line x1="50" y1="26" x2="470" y2="26" class="g"/><text x="46" y="29" font-size="9" text-anchor="end">20492</text><line x1="50" y1="96" x2="470" y2="96" class="g"/><text x="46" y="99" font-size="9" text-anchor="end">10246</text>
<line x1="50" y1="26" x2="50" y2="166"/><line x1="50" y1="166" x2="470" y2="166"/>
<polyline points="50,166 60,163 70,161 80,158 90,157 100,153 110,149 120,142 130,129 140,126 150,115 160,114 170,111 180,105 190,99 200,97 210,94 220,93 230,91 240,88 250,86 260,83 270,81 280,79 290,79 300,76 310,73 320,73 330,68 340,64 350,61 360,59 370,55 380,54 390,52 400,51 410,51 420,46 430,41 440,36 450,35 460,31 470,26" stroke-width="2.5" stroke-linejoin="round" stroke-linecap="round"/>
<text x="50" y="182" font-size="10">Sep 13</text><text x="470" y="182" font-size="10" text-anchor="end">Sep 24</text>
<text x="50" y="196" font-size="10" font-weight="600">20,492 lines &#183; 100% documented &#183; 388 commits since Sep 13 2026</text></svg>
