<svg xmlns="http://www.w3.org/2000/svg" width="200" height="200" viewBox="72 72 880 880">
  <!-- Made by Samantha: her own model picked the palette, 144 cells, circles and 4 lit ones; the harness laid them on a golden-angle spiral. Cell 1 is the one cell under the tape head. -->
  <rect x="72" y="72" width="880" height="880" rx="200" fill="#15110d"/>
  <circle cx="512" cy="512" r="29" fill="#e8a96a"/>
  <circle cx="514" cy="484" r="8.5" fill="#f4c893" opacity="0.55"/>
  <circle cx="536" cy="543" r="9" fill="#f4c893" opacity="0.57"/>
  <circle cx="464" cy="504" r="9" fill="#f4c893" opacity="0.58"/>
  <circle cx="559" cy="482" r="9.5" fill="#f4c893" opacity="0.59"/>
  <circle cx="496" cy="572" r="10" fill="#f4c893" opacity="0.59"/>
  <circle cx="480" cy="451" r="10" fill="#f4c893" opacity="0.60"/>
  <circle cx="582" cy="537" r="18.5" fill="#e8a96a"/>
  <circle cx="439" cy="542" r="10.5" fill="#f4c893" opacity="0.61"/>
  <circle cx="548" cy="436" r="11" fill="#f4c893" opacity="0.62"/>
  <circle cx="539" cy="597" r="11" fill="#f4c893" opacity="0.63"/>
  <circle cx="432" cy="465" r="11" fill="#f4c893" opacity="0.63"/>
  <circle cx="607" cy="491" r="11.5" fill="#f4c893" opacity="0.64"/>
  <circle cx="454" cy="595" r="11.5" fill="#f4c893" opacity="0.64"/>
  <circle cx="499" cy="408" r="11.5" fill="#f4c893" opacity="0.65"/>
  <circle cx="595" cy="582" r="12" fill="#f4c893" opacity="0.65"/>
  <circle cx="400" cy="517" r="12" fill="#f4c893" opacity="0.65"/>
  <circle cx="594" cy="431" r="12" fill="#f4c893" opacity="0.66"/>
  <circle cx="507" cy="631" r="12.5" fill="#f4c893" opacity="0.66"/>
  <circle cx="434" cy="418" r="12.5" fill="#f4c893" opacity="0.67"/>
  <circle cx="636" cy="529" r="20.5" fill="#e8a96a"/>
  <circle cx="407" cy="585" r="12.5" fill="#f4c893" opacity="0.67"/>
  <circle cx="541" cy="384" r="13" fill="#f4c893" opacity="0.68"/>
  <circle cx="579" cy="629" r="13" fill="#f4c893" opacity="0.68"/>
  <circle cx="381" cy="470" r="13" fill="#f4c893" opacity="0.68"/>
  <circle cx="639" cy="453" r="13.5" fill="#f4c893" opacity="0.69"/>
  <circle cx="457" cy="644" r="13.5" fill="#f4c893" opacity="0.69"/>
  <circle cx="463" cy="375" r="13.5" fill="#f4c893" opacity="0.69"/>
  <circle cx="643" cy="581" r="13.5" fill="#f4c893" opacity="0.70"/>
  <circle cx="366" cy="550" r="14" fill="#f4c893" opacity="0.70"/>
  <circle cx="595" cy="383" r="14" fill="#f4c893" opacity="0.70"/>
  <circle cx="538" cy="666" r="14" fill="#f4c893" opacity="0.71"/>
  <circle cx="387" cy="415" r="14" fill="#f4c893" opacity="0.71"/>
  <circle cx="672" cy="499" r="14" fill="#f4c893" opacity="0.71"/>
  <circle cx="401" cy="632" r="14.5" fill="#f4c893" opacity="0.72"/>
  <circle cx="513" cy="346" r="14.5" fill="#f4c893" opacity="0.72"/>
  <circle cx="625" cy="636" r="14.5" fill="#f4c893" opacity="0.72"/>
  <circle cx="342" cy="496" r="14.5" fill="#f4c893" opacity="0.72"/>
  <circle cx="650" cy="408" r="14.5" fill="#f4c893" opacity="0.73"/>
  <circle cx="481" cy="684" r="15" fill="#f4c893" opacity="0.73"/>
  <circle cx="418" cy="362" r="15" fill="#f4c893" opacity="0.73"/>
  <circle cx="685" cy="559" r="15" fill="#f4c893" opacity="0.73"/>
  <circle cx="350" cy="595" r="15" fill="#f4c893" opacity="0.74"/>
  <circle cx="576" cy="340" r="15" fill="#f4c893" opacity="0.74"/>
  <circle cx="582" cy="684" r="15.5" fill="#f4c893" opacity="0.74"/>
  <circle cx="342" cy="432" r="15.5" fill="#f4c893" opacity="0.74"/>
  <circle cx="694" cy="456" r="15.5" fill="#f4c893" opacity="0.75"/>
  <circle cx="415" cy="678" r="15.5" fill="#f4c893" opacity="0.75"/>
  <circle cx="471" cy="322" r="15.5" fill="#f4c893" opacity="0.75"/>
  <circle cx="672" cy="626" r="16" fill="#f4c893" opacity="0.75"/>
  <circle cx="315" cy="536" r="16" fill="#f4c893" opacity="0.76"/>
  <circle cx="642" cy="360" r="16" fill="#f4c893" opacity="0.76"/>
  <circle cx="519" cy="714" r="16" fill="#f4c893" opacity="0.76"/>
  <circle cx="369" cy="367" r="16" fill="#f4c893" opacity="0.76"/>
  <circle cx="718" cy="523" r="24" fill="#e8a96a"/>
  <circle cx="352" cy="644" r="16.5" fill="#f4c893" opacity="0.77"/>
  <circle cx="541" cy="304" r="16.5" fill="#f4c893" opacity="0.77"/>
  <circle cx="632" cy="686" r="16.5" fill="#f4c893" opacity="0.77"/>
  <circle cx="304" cy="464" r="16.5" fill="#f4c893" opacity="0.77"/>
  <circle cx="699" cy="406" r="16.5" fill="#f4c893" opacity="0.78"/>
  <circle cx="445" cy="718" r="16.5" fill="#f4c893" opacity="0.78"/>
  <circle cx="421" cy="313" r="17" fill="#f4c893" opacity="0.78"/>
  <circle cx="715" cy="598" r="17" fill="#f4c893" opacity="0.78"/>
  <circle cx="302" cy="586" r="17" fill="#f4c893" opacity="0.79"/>
  <circle cx="617" cy="314" r="17" fill="#f4c893" opacity="0.79"/>
  <circle cx="569" cy="731" r="17" fill="#f4c893" opacity="0.79"/>
  <circle cx="321" cy="388" r="17" fill="#f4c893" opacity="0.79"/>
  <circle cx="738" cy="474" r="17.5" fill="#f4c893" opacity="0.79"/>
  <circle cx="370" cy="694" r="17.5" fill="#f4c893" opacity="0.80"/>
  <circle cx="494" cy="280" r="17.5" fill="#f4c893" opacity="0.80"/>
  <circle cx="683" cy="672" r="17.5" fill="#f4c893" opacity="0.80"/>
  <circle cx="276" cy="510" r="17.5" fill="#f4c893" opacity="0.80"/>
  <circle cx="689" cy="353" r="17.5" fill="#f4c893" opacity="0.80"/>
  <circle cx="489" cy="750" r="17.5" fill="#f4c893" opacity="0.81"/>
  <circle cx="367" cy="319" r="18" fill="#f4c893" opacity="0.81"/>
  <circle cx="750" cy="557" r="18" fill="#f4c893" opacity="0.81"/>
  <circle cx="305" cy="641" r="18" fill="#f4c893" opacity="0.81"/>
  <circle cx="578" cy="275" r="18" fill="#f4c893" opacity="0.81"/>
  <circle cx="624" cy="733" r="18" fill="#f4c893" opacity="0.82"/>
  <circle cx="279" cy="424" r="18" fill="#f4c893" opacity="0.82"/>
  <circle cx="745" cy="419" r="18" fill="#f4c893" opacity="0.82"/>
  <circle cx="403" cy="739" r="18.5" fill="#f4c893" opacity="0.82"/>
  <circle cx="438" cy="269" r="18.5" fill="#f4c893" opacity="0.82"/>
  <circle cx="732" cy="642" r="18.5" fill="#f4c893" opacity="0.82"/>
  <circle cx="261" cy="565" r="18.5" fill="#f4c893" opacity="0.83"/>
  <circle cx="663" cy="302" r="18.5" fill="#f4c893" opacity="0.83"/>
  <circle cx="543" cy="770" r="18.5" fill="#f4c893" opacity="0.83"/>
  <circle cx="314" cy="342" r="18.5" fill="#f4c893" opacity="0.83"/>
  <circle cx="775" cy="504" r="19" fill="#f4c893" opacity="0.83"/>
  <circle cx="323" cy="697" r="19" fill="#f4c893" opacity="0.84"/>
  <circle cx="527" cy="247" r="19" fill="#f4c893" opacity="0.84"/>
  <circle cx="681" cy="719" r="19" fill="#f4c893" opacity="0.84"/>
  <circle cx="246" cy="474" r="19" fill="#f4c893" opacity="0.84"/>
  <circle cx="735" cy="360" r="19" fill="#f4c893" opacity="0.84"/>
  <circle cx="450" cy="776" r="19" fill="#f4c893" opacity="0.84"/>
  <circle cx="379" cy="274" r="19" fill="#f4c893" opacity="0.85"/>
  <circle cx="773" cy="598" r="19.5" fill="#f4c893" opacity="0.85"/>
  <circle cx="260" cy="625" r="19.5" fill="#f4c893" opacity="0.85"/>
  <circle cx="622" cy="257" r="19.5" fill="#f4c893" opacity="0.85"/>
  <circle cx="604" cy="775" r="19.5" fill="#f4c893" opacity="0.85"/>
  <circle cx="265" cy="379" r="19.5" fill="#f4c893" opacity="0.85"/>
  <circle cx="785" cy="443" r="19.5" fill="#f4c893" opacity="0.86"/>
  <circle cx="357" cy="748" r="19.5" fill="#f4c893" opacity="0.86"/>
  <circle cx="467" cy="231" r="19.5" fill="#f4c893" opacity="0.86"/>
  <circle cx="736" cy="689" r="20" fill="#f4c893" opacity="0.86"/>
  <circle cx="226" cy="533" r="20" fill="#f4c893" opacity="0.86"/>
  <circle cx="710" cy="302" r="20" fill="#f4c893" opacity="0.86"/>
  <circle cx="508" cy="802" r="20" fill="#f4c893" opacity="0.87"/>
  <circle cx="319" cy="294" r="20" fill="#f4c893" opacity="0.87"/>
  <circle cx="803" cy="542" r="20" fill="#f4c893" opacity="0.87"/>
  <circle cx="276" cy="687" r="20" fill="#f4c893" opacity="0.87"/>
  <circle cx="568" cy="222" r="20" fill="#f4c893" opacity="0.87"/>
  <circle cx="667" cy="764" r="20.5" fill="#f4c893" opacity="0.87"/>
  <circle cx="226" cy="430" r="20.5" fill="#f4c893" opacity="0.88"/>
  <circle cx="779" cy="378" r="20.5" fill="#f4c893" opacity="0.88"/>
  <circle cx="405" cy="793" r="20.5" fill="#f4c893" opacity="0.88"/>
  <circle cx="401" cy="231" r="20.5" fill="#f4c893" opacity="0.88"/>
  <circle cx="785" cy="644" r="20.5" fill="#f4c893" opacity="0.88"/>
  <circle cx="220" cy="599" r="20.5" fill="#f4c893" opacity="0.88"/>
  <circle cx="669" cy="250" r="20.5" fill="#f4c893" opacity="0.88"/>
  <circle cx="573" cy="813" r="20.5" fill="#f4c893" opacity="0.89"/>
  <circle cx="263" cy="331" r="21" fill="#f4c893" opacity="0.89"/>
  <circle cx="819" cy="477" r="21" fill="#f4c893" opacity="0.89"/>
  <circle cx="308" cy="747" r="21" fill="#f4c893" opacity="0.89"/>
  <circle cx="504" cy="200" r="21" fill="#f4c893" opacity="0.89"/>
  <circle cx="730" cy="737" r="21" fill="#f4c893" opacity="0.89"/>
  <circle cx="198" cy="493" r="21" fill="#f4c893" opacity="0.90"/>
  <circle cx="757" cy="313" r="21" fill="#f4c893" opacity="0.90"/>
  <circle cx="465" cy="825" r="21" fill="#f4c893" opacity="0.90"/>
  <circle cx="334" cy="248" r="21" fill="#f4c893" opacity="0.90"/>
  <circle cx="823" cy="587" r="21.5" fill="#f4c893" opacity="0.90"/>
  <circle cx="231" cy="667" r="21.5" fill="#f4c893" opacity="0.90"/>
  <circle cx="614" cy="207" r="21.5" fill="#f4c893" opacity="0.90"/>
  <circle cx="643" cy="807" r="21.5" fill="#f4c893" opacity="0.91"/>
  <circle cx="215" cy="382" r="21.5" fill="#f4c893" opacity="0.91"/>
  <circle cx="820" cy="406" r="21.5" fill="#f4c893" opacity="0.91"/>
  <circle cx="356" cy="799" r="21.5" fill="#f4c893" opacity="0.91"/>
  <circle cx="433" cy="194" r="21.5" fill="#f4c893" opacity="0.91"/>
  <circle cx="786" cy="694" r="21.5" fill="#f4c893" opacity="0.91"/>
  <circle cx="186" cy="563" r="22" fill="#f4c893" opacity="0.91"/>
  <circle cx="719" cy="253" r="22" fill="#f4c893" opacity="0.92"/>
  <circle cx="535" cy="844" r="22" fill="#f4c893" opacity="0.92"/>
  <circle cx="270" cy="282" r="22" fill="#f4c893" opacity="0.92"/>
  <circle cx="847" cy="519" r="30" fill="#e8a96a"/>
</svg>